<svg xmlns="http://www.w3.org/2000/svg" width="64" height="64" viewBox="0 0 64 64" fill="none">
  <defs>
    <linearGradient id="panel" x1="8" y1="8" x2="56" y2="56" gradientUnits="userSpaceOnUse">
      <stop stop-color="#101527" />
      <stop offset="1" stop-color="#050510" />
    </linearGradient>
    <linearGradient id="border" x1="12" y1="10" x2="52" y2="54" gradientUnits="userSpaceOnUse">
      <stop stop-color="#00D4FF" />
      <stop offset="0.55" stop-color="#00FCC0" />
      <stop offset="1" stop-color="#7B2FFF" />
    </linearGradient>
    <linearGradient id="mark" x1="18" y1="18" x2="47" y2="42" gradientUnits="userSpaceOnUse">
      <stop stop-color="#A8E8FF" />
      <stop offset="0.35" stop-color="#00D4FF" />
      <stop offset="1" stop-color="#7B2FFF" />
    </linearGradient>
    <radialGradient id="ambient" cx="0" cy="0" r="1" gradientUnits="userSpaceOnUse" gradientTransform="translate(32 30) rotate(90) scale(28)">
      <stop stop-color="#00D4FF" stop-opacity="0.24" />
      <stop offset="0.7" stop-color="#00D4FF" stop-opacity="0" />
    </radialGradient>
    <filter id="glow" x="8" y="8" width="48" height="48" filterUnits="userSpaceOnUse" color-interpolation-filters="sRGB">
      <feFlood flood-opacity="0" result="BackgroundImageFix" />
      <feBlend in="SourceGraphic" in2="BackgroundImageFix" result="shape" />
      <feGaussianBlur stdDeviation="1.8" result="blur" />
    </filter>
    <filter id="dotGlow" x="10" y="10" width="18" height="18" filterUnits="userSpaceOnUse" color-interpolation-filters="sRGB">
      <feFlood flood-opacity="0" result="BackgroundImageFix" />
      <feBlend in="SourceGraphic" in2="BackgroundImageFix" result="shape" />
      <feGaussianBlur stdDeviation="1.4" result="blur" />
    </filter>
  </defs>

  <rect width="64" height="64" rx="18" fill="#04040D" />
  <rect x="4.5" y="4.5" width="55" height="55" rx="13.5" fill="url(#panel)" stroke="url(#border)" stroke-opacity="0.65" />
  <rect x="9" y="9" width="46" height="46" rx="11" fill="url(#ambient)" opacity="0.9" />

  <path d="M13 18H51" stroke="#00D4FF" stroke-opacity="0.12" />
  <path d="M13 46H51" stroke="#7B2FFF" stroke-opacity="0.14" />

  <g filter="url(#dotGlow)">
    <circle cx="18.5" cy="18.5" r="3.1" fill="#00FCC0" />
  </g>

  <path
    d="M44 18H25L19 24L39 24L45 31L38.5 39H20"
    stroke="url(#mark)"
    stroke-width="6"
    stroke-linecap="round"
    stroke-linejoin="round"
  />
  <path
    d="M44 18H25L19 24L39 24L45 31L38.5 39H20"
    stroke="url(#mark)"
    stroke-opacity="0.55"
    stroke-width="6"
    stroke-linecap="round"
    stroke-linejoin="round"
    filter="url(#glow)"
  />
</svg>
